<svg width="24" height="24" viewBox="0 0 24 24" fill="none" xmlns="http://www.w3.org/2000/svg">
<path d="M15 10L14.014 9.836C13.9902 9.97919 13.9978 10.1259 14.0364 10.2658C14.075 10.4057 14.1436 10.5356 14.2374 10.6464C14.3312 10.7571 14.4481 10.8461 14.5797 10.9072C14.7114 10.9683 14.8548 10.9999 15 11V10ZM4 10V9C3.73478 9 3.48043 9.10536 3.29289 9.29289C3.10536 9.48043 3 9.73478 3 10H4ZM6 21H17.36V19H6V21ZM18.56 9H15V11H18.56V9ZM15.987 10.164L16.792 5.329L14.82 5L14.014 9.836L15.987 10.164ZM14.82 3H14.606V5H14.82V3ZM11.277 4.781L8.763 8.555L10.427 9.665L12.943 5.891L11.277 4.781ZM7.93 9H4V11H7.93V9ZM3 10V18H5V10H3ZM20.302 18.588L21.502 12.588L19.542 12.196L18.342 18.196L20.302 18.588ZM8.763 8.555C8.67165 8.69192 8.54692 8.80417 8.40178 8.88179C8.25665 8.95942 8.09459 9.00002 7.93 9V11C8.42387 11 8.91009 10.878 9.3455 10.6449C9.78092 10.4119 10.1521 10.0749 10.426 9.664L8.763 8.555ZM16.792 5.329C16.8398 5.04254 16.8246 4.74911 16.7475 4.46911C16.6704 4.18911 16.5333 3.92926 16.3456 3.70762C16.1579 3.48598 15.9242 3.30787 15.6608 3.18567C15.3973 3.06347 15.1104 3.00011 14.82 3V5L16.792 5.329ZM18.56 11C18.708 10.9999 18.8541 11.0327 18.9879 11.096C19.1217 11.1592 19.2397 11.2514 19.3336 11.3658C19.4274 11.4802 19.4947 11.614 19.5306 11.7576C19.5664 11.9012 19.571 12.0509 19.542 12.196L21.502 12.588C21.589 12.1528 21.5783 11.7038 21.4708 11.2733C21.3633 10.8427 21.1617 10.4414 20.8804 10.0982C20.599 9.75501 20.2451 9.4785 19.844 9.28859C19.443 9.09869 19.0048 9.00012 18.561 9L18.56 11ZM17.36 21C18.0536 21 18.7258 20.7597 19.2622 20.32C19.7986 19.8802 20.166 19.2682 20.302 18.588L18.342 18.196C18.2966 18.4229 18.174 18.6271 17.9949 18.7737C17.8158 18.9204 17.5914 19.0003 17.36 19V21ZM14.606 3C13.9475 3.00001 13.2993 3.16257 12.7187 3.47326C12.1382 3.78395 11.6423 4.23315 11.277 4.781L12.943 5.891C13.1256 5.61698 13.372 5.39228 13.6623 5.23685C13.9526 5.08142 14.2767 5.00006 14.606 5V3ZM6 19C5.73478 19 5.48043 18.8946 5.29289 18.7071C5.10536 18.5196 5 18.2652 5 18H3C3 18.7956 3.31607 19.5587 3.87868 20.1213C4.44129 20.6839 5.20435 21 6 21V19Z" fill="black"/>
<path d="M8 10V20" stroke="black" stroke-width="2"/>
</svg>
