<svg width="24" height="24" viewBox="0 0 24 24" fill="none" xmlns="http://www.w3.org/2000/svg">
<path d="M8 3C6.14348 3 4.36301 3.7375 3.05025 5.05025C1.7375 6.36301 1 8.14348 1 10C1 11.8565 1.7375 13.637 3.05025 14.9497C4.36301 16.2625 6.14348 17 8 17H9.07C8.97427 16.3368 8.97427 15.6632 9.07 15H8C6.67392 15 5.40215 14.4732 4.46447 13.5355C3.52678 12.5979 3 11.3261 3 10C3 8.67392 3.52678 7.40215 4.46447 6.46447C5.40215 5.52678 6.67392 5 8 5H16C16.7415 4.99985 17.4738 5.16463 18.1438 5.48241C18.8137 5.80018 19.4046 6.263 19.8737 6.83733C20.3427 7.41166 20.6781 8.08312 20.8556 8.80308C21.0332 9.52304 21.0483 10.2735 20.9 11C21.4895 11.5774 21.9723 12.2545 22.326 13C22.8322 11.9329 23.0601 10.7551 22.9886 9.57629C22.9171 8.39743 22.5485 7.25582 21.9171 6.25773C21.2858 5.25965 20.4121 4.43754 19.3775 3.86794C18.3429 3.29833 17.181 2.99976 16 3H8ZM16 13C15.2044 13 14.4413 13.3161 13.8787 13.8787C13.3161 14.4413 13 15.2044 13 16C13 16.7956 13.3161 17.5587 13.8787 18.1213C14.4413 18.6839 15.2044 19 16 19C16.7956 19 17.5587 18.6839 18.1213 18.1213C18.6839 17.5587 19 16.7956 19 16C19 15.2044 18.6839 14.4413 18.1213 13.8787C17.5587 13.3161 16.7956 13 16 13ZM11 16C11.0002 15.2204 11.1827 14.4517 11.5329 13.7552C11.8831 13.0587 12.3913 12.4537 13.0169 11.9886C13.6426 11.5235 14.3683 11.2111 15.1361 11.0764C15.904 10.9417 16.6927 10.9884 17.4393 11.2128C18.1859 11.4373 18.8697 11.8331 19.436 12.3689C20.0024 12.9046 20.4356 13.5654 20.7011 14.2984C20.9666 15.0313 21.057 15.8162 20.9652 16.5904C20.8733 17.3646 20.6017 18.1065 20.172 18.757L22.707 21.293L21.293 22.707L18.757 20.172C18.0034 20.6701 17.1288 20.9548 16.2264 20.9957C15.3239 21.0366 14.4272 20.8322 13.6316 20.4043C12.836 19.9764 12.1712 19.3409 11.7078 18.5654C11.2445 17.7899 10.9999 16.9034 11 16Z" fill="black"/>
</svg>
