<svg width="24" height="24" viewBox="0 0 24 24" fill="none" xmlns="http://www.w3.org/2000/svg">
<path d="M18 3C18.7956 3 19.5587 3.31607 20.1213 3.87868C20.6839 4.44129 21 5.20435 21 6V18C21 18.7956 20.6839 19.5587 20.1213 20.1213C19.5587 20.6839 18.7956 21 18 21H6C5.20435 21 4.44129 20.6839 3.87868 20.1213C3.31607 19.5587 3 18.7956 3 18V6C3 5.20435 3.31607 4.44129 3.87868 3.87868C4.44129 3.31607 5.20435 3 6 3H18ZM15.707 9.293C15.5195 9.10553 15.2652 9.00021 15 9.00021C14.7348 9.00021 14.4805 9.10553 14.293 9.293L12 11.585L10.707 10.293C10.5195 10.1055 10.2652 10.0002 10 10.0002C9.73484 10.0002 9.48053 10.1055 9.293 10.293L6.293 13.293C6.10553 13.4805 6.00021 13.7348 6.00021 14C6.00021 14.2652 6.10553 14.5195 6.293 14.707L6.387 14.79C6.5794 14.9393 6.81966 15.0132 7.06268 14.9979C7.30571 14.9826 7.53481 14.8792 7.707 14.707L10 12.415L11.293 13.707L11.387 13.79C11.5794 13.9393 11.8197 14.0132 12.0627 13.9979C12.3057 13.9826 12.5348 13.8792 12.707 13.707L15 11.415L16.293 12.707C16.4816 12.8892 16.7342 12.99 16.9964 12.9877C17.2586 12.9854 17.5094 12.8802 17.6948 12.6948C17.8802 12.5094 17.9854 12.2586 17.9877 11.9964C17.99 11.7342 17.8892 11.4816 17.707 11.293L15.707 9.293Z" fill="black"/>
</svg>
